<svg width="44" height="44" viewBox="0 0 44 44" fill="none" xmlns="http://www.w3.org/2000/svg">
<circle cx="22" cy="22" r="22" fill="url(#paint0_linear_125_163)"/>
<path d="M21.0408 25.834L23.8382 23.5067L27.6308 24.5229L28.1406 22.6201L25.6751 21.9595L29.1598 19.0677C29.5947 18.7022 29.9093 18.2096 30.0602 17.6577C30.2458 16.961 30.1535 16.2208 29.8037 15.5991C29.6331 15.2919 29.404 15.023 29.1297 14.8077C28.8554 14.5925 28.5413 14.4353 28.2056 14.3452L17.9012 11.5842L16.598 16.4476L22.6475 18.0686L19.85 20.3959L16.3893 19.4686L15.8794 21.3714L17.9881 21.9364L14.515 24.845C14.0224 25.2549 13.6861 25.8275 13.5655 26.4615C13.4449 27.0955 13.5478 27.7501 13.856 28.3096C14.0271 28.6164 14.2563 28.8851 14.5306 29.1003C14.8048 29.3155 15.1187 29.4729 15.4541 29.5635L26.4321 32.505L27.7387 27.6287L21.0408 25.834Z" fill="white"/>
<defs>
<linearGradient id="paint0_linear_125_163" x1="2.13451e-07" y1="24.9333" x2="44" y2="24.9333" gradientUnits="userSpaceOnUse">
<stop stop-color="#F075B2"/>
<stop offset="1" stop-color="#EE107E"/>
</linearGradient>
</defs>
</svg>
